<svg xmlns="http://www.w3.org/2000/svg" width="200" height="200" viewBox="0 0 488 488">
  <!-- assets/allin.svg wrapped in a SMIL clockwise rotation; viewBox padded by sqrt(2) so corners never clip -->
  <g transform="translate(244 244)">
    <g>
      <animateTransform attributeName="transform" attributeType="XML" type="rotate" from="0" to="360" dur="5.5s" repeatCount="indefinite"/>
      <g transform="translate(-512 -516)">
        <path d="M 445.030 424.826 C 408.656 461.581, 377.293 493.868, 375.333 496.576 C 354.812 524.933, 354.863 564.632, 375.456 593.490 C 385.142 607.065, 401.500 618.666, 418.500 624.019 C 429.294 627.417, 447.919 627.920, 459.037 625.113 C 469.252 622.534, 480.186 617.487, 488.411 611.553 C 491.760 609.137, 509.801 591.712, 528.503 572.830 C 547.204 553.949, 577.120 523.762, 594.982 505.750 L 627.459 473 569.991 415.500 C 538.384 383.875, 512.218 358, 511.844 358 C 511.470 358, 481.404 388.072, 445.030 424.826 M 496.993 633.621 C 489.022 650.463, 482.350 664.638, 482.167 665.121 C 481.980 665.614, 495.046 666, 511.917 666 C 528.462 666, 542 665.862, 542 665.693 C 542 665.524, 535.955 652.659, 528.567 637.103 C 521.178 621.548, 514.677 607.511, 514.119 605.911 C 513.561 604.310, 512.740 603, 512.295 603 C 511.850 603, 504.964 616.780, 496.993 633.621" stroke="none" fill="#040404" fill-rule="evenodd"/>
        <path d="M 619.984 499.772 C 611.058 508.972, 585.263 535.059, 562.662 557.743 L 521.569 598.986 526.035 603.588 C 534.095 611.896, 546.691 619.396, 560.500 624.110 C 566.709 626.230, 569.251 626.498, 583 626.484 C 595.255 626.471, 599.756 626.079, 604.500 624.609 C 631.604 616.213, 651.656 596.789, 660.343 570.515 C 662.898 562.787, 663.388 559.562, 663.771 547.925 C 664.155 536.252, 663.906 533.100, 661.993 525.425 C 658.433 511.146, 653.459 501.484, 643.581 489.661 C 641.357 487, 638.790 484.423, 637.876 483.933 C 636.545 483.221, 632.983 486.374, 619.984 499.772" stroke="none" fill="#b9222a" fill-rule="evenodd"/>
      </g>
    </g>
  </g>
</svg>
