<?xml version="1.0" encoding="utf-8" ?><svg xmlns="http://www.w3.org/2000/svg" xmlns:xlink="http://www.w3.org/1999/xlink" width="391" height="573" viewBox="0 0 391 573"><path d="M152.181 219.689C168.823 218.425 187.499 219.154 204.268 219.397C216.045 219.568 232.013 218.876 243.334 219.992C232.261 269.685 240.794 324.193 257.013 371.875L261.346 384.325C262.813 388.577 265.482 398.28 269.67 400.187C277.845 400.677 288.241 406.572 287.753 415.861C287.651 417.569 287.172 419.233 286.353 420.735C284.917 423.212 282.954 425.841 280.297 427.105C284.034 434.726 288.845 439.807 294.911 445.688C307.481 457.873 327.739 469.03 311.938 488.257C315.806 489.742 320.378 492.165 322.214 496.077C324.173 500.251 324.029 518.76 322.291 523.289C320.776 527.235 317.335 529.478 313.613 531.134C298.583 537.821 273.848 540.159 257.065 541.661C220.014 545.194 182.731 545.574 145.617 542.798C133.807 541.967 82.0599 538.378 72.7639 523.185C71.5361 521.178 72.2179 504.117 72.4365 500.876C72.8871 494.196 77.8565 490.863 83.9355 488.753C65.0822 470.102 91.6538 454.286 103.741 442.742C108.287 438.4 112.251 432.839 115.688 427.578C115.431 427.385 115.179 427.184 114.935 426.976C111.597 424.132 108.402 420.022 108.21 415.507C107.749 404.649 119.057 400.898 127.811 400.456C128.611 397.358 131.813 389.481 133.028 386.265C136.072 378.438 138.822 370.499 141.272 362.465C152.66 325.562 158.454 287.901 156.108 249.171C155.526 239.561 153.707 229.213 152.181 219.689ZM266.362 535.274C265.176 535.223 264.6 535.487 263.415 535.071L263.147 534.486C260.419 534.97 257.563 535.315 255.044 536.438C258.889 536.148 262.536 535.71 266.362 535.274Z"/><path fill="#CB0100" d="M269.67 400.187C277.845 400.677 288.241 406.572 287.753 415.861C287.651 417.569 287.172 419.233 286.353 420.735C285.972 420.119 284.511 418.759 283.942 418.234C281.811 416.265 280.203 417.125 278.703 419.021C278.294 417.761 278.142 415.624 277.991 414.24C273.72 414.253 269.687 415.094 265.503 415.867C261.601 416.115 256.527 417.37 252.577 418.072C250.469 418.447 246.263 419.034 244.409 419.552C243.064 419.006 241.775 418.045 240.565 417.217C233.612 414.617 214.039 415.993 205.818 415.802C193.065 415.505 179.743 416.036 166.912 415.659C162.301 415.524 156.607 416.119 151.843 416.215C151.019 415.989 147.815 415.914 146.801 415.883C140.92 415.704 135.284 415.153 129.456 414.399C128.907 414.47 128.126 414.457 127.55 414.467C124.036 414.201 116.262 414.231 114.687 409.976C113.85 407.713 117.687 406.276 119.436 405.901C128.16 404.085 137.518 406.807 146.272 407.671C180.934 411.094 216.317 411.742 250.947 407.729C256.302 407.109 263.16 406.542 268.271 405.231C269.86 403.879 271.407 402.012 269.67 400.187Z"/><path fill="#F99799" d="M129.456 414.399C132.027 412.377 135.561 411.908 138.754 411.894C146.641 411.861 154.848 412.459 162.741 412.842C174.16 413.384 185.589 413.657 197.021 413.662C208.553 413.676 220.085 413.495 231.612 413.117C236.576 412.931 259.586 410.771 261.688 414.525C260.868 416.334 243.19 417.023 240.565 417.217C233.612 414.617 214.039 415.993 205.818 415.802C193.065 415.505 179.743 416.036 166.912 415.659C162.301 415.524 156.607 416.119 151.843 416.215C151.019 415.989 147.815 415.914 146.801 415.883C140.92 415.704 135.284 415.153 129.456 414.399Z"/><path fill="#822C2B" d="M269.67 400.187C277.845 400.677 288.241 406.572 287.753 415.861C287.651 417.569 287.172 419.233 286.353 420.735C285.972 420.119 284.511 418.759 283.942 418.234C281.811 416.265 280.203 417.125 278.703 419.021C278.294 417.761 278.142 415.624 277.991 414.24C279.06 414.167 282.152 414.129 282.281 412.677C282.562 409.512 280.025 407.613 277.37 406.608C274.27 405.435 271.444 405.787 268.271 405.231C269.86 403.879 271.407 402.012 269.67 400.187Z"/><path fill="#343334" d="M129.456 414.399C135.284 415.153 140.92 415.704 146.801 415.883C147.815 415.914 151.019 415.989 151.843 416.215C149.027 420.336 147.783 420.202 150.861 424.949C145.631 425.258 139.112 424.45 133.871 423.705C131.648 423.389 128.114 422.246 126.837 420.241C125.39 417.968 127.135 416.348 127.55 414.467C128.126 414.457 128.907 414.47 129.456 414.399Z"/><path fill="#343334" d="M244.409 419.552C246.263 419.034 250.469 418.447 252.577 418.072C256.527 417.37 261.601 416.115 265.503 415.867C264.941 426.614 248.291 425.354 240.132 425.901C242.502 424.316 244.306 422.616 244.409 419.552Z"/><path fill="#CB0100" d="M278.703 419.021C280.203 417.125 281.811 416.265 283.942 418.234C284.511 418.759 285.972 420.119 286.353 420.735C284.917 423.212 282.954 425.841 280.297 427.105C279.876 426.231 279.77 426.124 279.083 425.433C277.871 424.879 276.085 425.356 274.677 425.563C273.593 425.637 272.676 425.772 271.63 425.45C270.831 424.609 271.086 424.984 270.782 423.664C273.25 422.749 277.112 421.099 278.703 419.021Z"/><path fill="#822C2B" d="M255.97 426.621C261.404 425.806 265.381 425.016 270.782 423.664C271.086 424.984 270.831 424.609 271.63 425.45C272.676 425.772 273.593 425.637 274.677 425.563C268.187 426.745 262.472 428.087 255.97 426.621Z"/><defs><linearGradient id="gradient_0" gradientUnits="userSpaceOnUse" x1="148.57831" y1="228.44205" x2="171.09341" y2="402.12784"><stop offset="0" stop-color="#4A4949"/><stop offset="1" stop-color="#757575"/></linearGradient></defs><path fill="url(#gradient_0)" d="M164.278 225.803C168.141 225.742 171.939 225.71 175.782 226.131C177.664 237.491 178.311 255.907 178.52 267.558C179.35 297.949 177.392 328.353 172.67 358.387C170.284 373.61 166.974 388.909 163.832 403.998C161.654 403.62 157.836 403.411 155.574 403.243C151.607 403.015 147.241 402.525 143.2 402.239C157.903 358.682 167.242 315.258 167.123 269.013C167.084 253.792 165.536 240.775 164.278 225.803Z"/><path fill="#CB0100" d="M225.208 226.22L230.619 226.019C228.898 234.48 228.439 243.746 227.926 252.399C225.796 288.339 230.687 324.522 238.381 359.568C241.52 373.865 245.58 388.064 249.268 402.215C247.204 402.508 245.054 402.732 242.978 402.977C238.883 403.279 234.787 403.555 230.689 403.806C229.968 400.098 228.795 396.25 228.053 392.553C226.671 385.671 225.145 378.568 223.979 371.66C217.777 334.277 215.437 296.355 216.995 258.493C217.397 248.914 217.604 235.335 219.89 226.389L225.208 226.22Z"/><path fill="#CB0100" d="M309.573 492.018C325.75 498.184 314.538 503.623 304.616 506.29C294.958 508.897 285.119 510.779 275.181 511.919C268.81 513.826 250.148 515.285 243.29 515.692C209.663 517.854 175.919 517.402 142.361 514.342C132.689 513.437 122.515 512.424 112.92 510.839C111.011 510.577 109.107 510.273 107.211 509.926C100.362 508.841 93.5762 507.857 87.0437 505.401C83.0849 503.912 73.2538 499.468 80.7075 494.975C82.393 493.958 84.6399 493.156 86.5092 492.507C89.074 495.254 91.2745 497.091 94.9475 498.256C118.343 505.677 144.691 507.844 169.04 508.673C192.774 509.603 216.54 509.298 240.242 507.758C260.299 506.577 283.569 504.965 302.723 497.801C303.867 497.373 306.029 495.524 306.926 494.689C307.839 493.829 308.722 492.938 309.573 492.018Z"/><path fill="#F99799" d="M114.5 509.883C143.666 512.52 172.937 513.829 202.221 513.806C215.293 513.74 228.361 513.41 241.419 512.817C246.882 512.534 272.047 510.413 275.181 511.919C268.81 513.826 250.148 515.285 243.29 515.692C209.663 517.854 175.919 517.402 142.361 514.342C132.689 513.437 122.515 512.424 112.92 510.839C114.105 510.433 113.757 510.704 114.5 509.883Z"/><path fill="#ED9BA3" d="M107.211 509.926L107.398 509.602C108.974 509.42 112.844 509.668 114.5 509.883C113.757 510.704 114.105 510.433 112.92 510.839C111.011 510.577 109.107 510.273 107.211 509.926Z"/><path fill="#494849" d="M130.131 438.314C134.855 439.873 147.295 441.158 152.61 441.548C148.918 451.173 145.925 457.374 139.187 465.4C135.839 469.602 132.077 473.527 129.337 478.167C127.234 481.728 128.949 486.152 130.102 489.836L125.007 489.505C121.118 489.171 108.342 487.224 105.071 485.541C92.0752 478.854 110.167 464.558 114.637 460.211C121.312 453.72 126.297 445.935 130.131 438.314Z"/><path fill="#CB0100" d="M259.425 439.631C260.478 439.501 260.381 439.348 261.207 439.713C265.154 445.02 267.521 450.496 271.181 455.56C276.717 462.757 287.958 468.792 289.797 478.153C291.619 487.432 274.929 488.542 268.567 489.248C266.171 489.519 263.639 489.627 261.224 489.774C261.524 489.179 261.8 488.574 262.053 487.958C266.99 476.066 254.492 469.018 248.538 459.495C244.285 452.69 242.756 449.408 239.675 441.877C246.342 441.188 252.783 440.543 259.425 439.631Z"/><defs><linearGradient id="gradient_1" gradientUnits="userSpaceOnUse" x1="197.28313" y1="501.16949" x2="197.65305" y2="482.16055"><stop offset="0" stop-color="#363536"/><stop offset="1" stop-color="#5A5151"/></linearGradient></defs><path fill="url(#gradient_1)" d="M308.374 484.006L308.826 484.165C308.817 484.933 308.404 485.583 307.852 486.133C296.215 497.748 272.278 498.013 256.812 499.436C252.594 499.825 246.993 500.185 242.986 500.391C213.902 501.821 184.769 501.972 155.671 500.842C138.621 500.152 118.293 498.885 101.657 494.406C97.1126 493.182 92.1137 490.276 88.6288 487.128L85.8814 483.957C90.4701 486.292 98.1897 490.026 102.991 491.14C109.996 492.548 117.528 493.987 124.663 494.345C131.174 494.671 137.335 494.827 143.846 495.467C181.008 499.123 218.316 497.741 255.464 494.755C274.705 493.208 291.188 494.342 308.374 484.006Z"/><path fill="#822C2B" d="M96.0619 514.135C106.812 516.981 119.38 517.514 130.508 519.479C128.285 520.326 126.319 521.601 125.255 523.82C124.549 525.284 124.477 526.974 125.057 528.493C126.235 531.656 128.791 532.87 131.575 534.198C133.195 534.732 134.62 535.303 136.195 535.937C129.128 534.703 102.052 533.079 98.0502 529.232C95.0927 526.389 95.9792 518.048 96.0619 514.135Z"/><path fill="#CB0100" d="M264.001 519.325C270.039 518.436 276.039 517.777 282.087 516.991C286.511 516.416 291.042 515.474 295.461 514.904C295.203 519.525 294.926 526.483 293.574 530.826C287.269 532.412 272.647 535.094 266.362 535.274C265.176 535.223 264.6 535.487 263.415 535.071L263.147 534.486C265.749 533.275 268.163 531.678 269.181 528.832C269.775 527.212 269.673 525.419 268.898 523.877C267.895 521.841 266.314 520.661 264.414 519.564L264.157 519.414L264.001 519.325Z"/><path fill="#822C2B" fill-opacity="0.98431373" d="M255.044 536.438C257.563 535.315 260.419 534.97 263.147 534.486L263.415 535.071C264.6 535.487 265.176 535.223 266.362 535.274C262.536 535.71 258.889 536.148 255.044 536.438Z"/><path fill="#CB0100" d="M185.859 55.4378C181 46.309 171.601 39.3406 175.133 27.8504C176.875 22.1822 181.608 16.8201 186.847 14.1052C192.351 11.2512 198.776 10.7475 204.658 12.7087C215.6 16.2864 222.667 27.5349 218.869 38.8959C216.783 45.1355 212.067 49.1963 209.217 54.7682C211.766 56.3888 215.679 57.5912 218.516 58.9436C223.554 61.3453 227.236 64.1286 231.561 67.5669C244.17 61.9767 252.838 64.6778 257.061 78.2344C263.902 73.0382 270.946 69.2445 279.821 70.3894C286.645 71.2697 294.25 74.9157 287.963 82.2749C276.629 95.5432 266.373 107.763 258.23 123.377C251.705 135.888 249.662 146.82 246.793 160.369C257.889 164.63 259.449 173.722 248.588 179.812C259.383 180.876 264.669 185.79 259.763 196.465C272.94 199.291 275.911 209.925 265.115 217.775C261.3 220.548 248.866 219.211 243.334 219.992C232.013 218.876 216.045 219.568 204.268 219.397C187.499 219.154 168.823 218.425 152.181 219.689C145.314 218.583 135.859 221.95 128.623 216.939C126.089 215.157 124.371 212.437 123.849 209.383C123.404 206.61 124.066 203.944 125.733 201.703C128.477 198.016 132.298 197.514 136.489 196.847C129.161 186.16 136.74 181.996 146.438 179.621C142.626 177.695 137.949 173.912 139.184 169.055C140.315 164.609 145.105 162.071 148.738 159.891C148.5 156.943 147.162 151.686 146.451 148.821C141.766 129.925 132.512 113.148 120.707 97.7802C115.601 91.133 109.276 84.7358 104.808 77.7508C109.988 64.3791 129.339 71.3112 137.648 77.5161C138.426 73.7617 140.638 69.2437 143.981 67.1559C149.864 63.4813 156.274 66.2794 162.375 67.5609C172.653 59.6142 173.499 58.8841 185.859 55.4378Z"/><path d="M175.112 83.5678C177.141 82.9146 178.744 82.3551 180.426 81.0575C184.279 78.0853 186.708 74.2131 190.929 71.6584C198.008 67.3731 203.748 70.3616 208.858 75.9214C211.69 79.003 214.671 84.3685 219.523 82.6407C221.796 81.8875 223.36 80.5272 225.141 79.0602C231.283 74.0004 235.598 69.8071 243.989 71.0984C240.875 78.0579 236.028 86.5051 233.391 93.0282C226.222 110.765 220.412 138.264 219.465 157.5L230.908 157.521C233.53 136.188 238.507 117.256 247.306 97.6C249.136 93.5117 251.947 86.9159 254.918 83.6036C264.854 81.9323 274.717 71.0043 284.308 76.7735C284.69 77.3671 284.805 77.6074 284.645 78.3234C284.08 80.8501 272.62 93.1259 270.295 96.1466C255.106 115.879 245.357 136.242 241.883 161.034L183.192 161.043C173.656 161.057 162.451 161.465 153.039 161.06C150.537 142.474 147.246 131.444 137.527 114.883C132.884 107.122 127.713 99.6898 122.051 92.6394C120.105 90.2034 110.668 79.4312 110.725 77.3675C112.007 75.8008 114.623 74.9858 116.547 74.8589C123.797 74.3806 129.82 80.5655 137.029 83.1448L137.948 83.1777C144.547 83.4765 139.911 71.969 150.652 70.6745C156.4 71.1667 159.727 72.0588 164.651 75.2189L166.628 76.8143C169.46 79.4949 171.618 81.7434 175.112 83.5678Z"/><path fill="#822C2B" d="M137.029 83.1448L137.948 83.1777C144.547 83.4765 139.911 71.969 150.652 70.6745C154.166 76.5433 155.986 81.3964 158.653 87.5112C168.775 110.715 172.221 132.294 174.601 157.249C170.524 157.312 166.447 157.403 162.371 157.523C159.598 137.025 155.763 119.158 147.817 99.8932C145.577 94.4614 142.966 88.4312 139.87 83.4374C139.053 83.3773 137.788 83.3269 137.029 83.1448Z"/><path d="M185.859 55.4378C181 46.309 171.601 39.3406 175.133 27.8504C176.875 22.1822 181.608 16.8201 186.847 14.1052C192.351 11.2512 198.776 10.7475 204.658 12.7087C215.6 16.2864 222.667 27.5349 218.869 38.8959C216.783 45.1355 212.067 49.1963 209.217 54.7682C211.766 56.3888 215.679 57.5912 218.516 58.9436C223.554 61.3453 227.236 64.1286 231.561 67.5669C230.307 68.7287 228.683 69.8915 227.302 70.9363C222.936 66.6161 216.449 61.6258 210.123 61.5957C212.896 62.6082 217.259 63.5003 218.343 66.2934C218.863 66.3843 219.151 66.2277 219.651 66.0563C221.689 66.7126 224.465 69.8913 226.092 71.5255C224.853 72.7191 222.298 75.3455 220.92 76.1046C220.668 77.6382 218.753 78.1554 217.583 77.6981C214.944 76.6661 212.012 72.443 210.049 70.4286C204.108 64.3345 196.649 63.2709 189.226 67.2234C187.418 68.1935 185.738 69.3871 184.227 70.776C181.655 73.1258 177.932 78.3914 174.578 77.5809C173.99 76.7443 171.017 74.1757 170.116 73.3739L168.884 72.3204L167.587 71.234C165.752 70.0714 163.973 69.0373 162.375 67.5609C172.653 59.6142 173.499 58.8841 185.859 55.4378Z"/><path fill="#343334" d="M167.587 71.234C172.126 64.8473 181.01 61.7421 188.486 60.4607C189.596 60.2748 190.71 60.1054 191.825 59.9525C185.259 63.739 177.304 70.3014 174.578 77.5809C173.99 76.7443 171.017 74.1757 170.116 73.3739L168.884 72.3204L167.587 71.234Z"/><path fill="#F99799" d="M204.384 60.143C206.575 60.5872 207.987 60.9483 210.123 61.5957C212.896 62.6082 217.259 63.5003 218.343 66.2934C218.863 66.3843 219.151 66.2277 219.651 66.0563C221.689 66.7126 224.465 69.8913 226.092 71.5255C224.853 72.7191 222.298 75.3455 220.92 76.1046C219.131 74.1292 217.37 71.2539 215.458 69.2958C212.233 65.994 208.047 63.0274 204.384 60.143Z"/><path fill="#F99799" d="M190.286 17.9601C194.534 15.2956 199.657 15.6524 204.176 17.3491C208.746 19.0989 212.242 21.3801 214.37 26.0421C216.048 29.7201 216.168 35.2973 214.652 39.0714C213.252 42.4913 210.563 45.2222 207.165 46.6733C204.488 47.8129 202.191 47.9752 199.33 48.0348C205.823 44.3276 209.872 41.0075 210.422 33.0805C207.621 25.1435 206.086 24.1743 198.406 21.3654C193.902 22.2852 192.684 22.8679 188.958 25.4136C186.91 23.9641 186.55 23.487 185.388 21.2435C187.171 19.7465 188.314 19.0743 190.286 17.9601Z"/><path fill="#CB0100" d="M204.176 17.3491C208.746 19.0989 212.242 21.3801 214.37 26.0421C216.048 29.7201 216.168 35.2973 214.652 39.0714C213.252 42.4913 210.563 45.2222 207.165 46.6733C204.488 47.8129 202.191 47.9752 199.33 48.0348C205.823 44.3276 209.872 41.0075 210.422 33.0805C211.831 33.093 212.882 32.2376 214.039 31.4756C213.024 25.455 209.27 21.067 203.678 18.701L204.176 17.3491Z"/><path fill="#6A696A" d="M190.286 17.9601C191.775 18.4286 192.235 18.3431 193.806 18.2254C194.753 19.4888 196.864 21.1262 198.406 21.3654C193.902 22.2852 192.684 22.8679 188.958 25.4136C186.91 23.9641 186.55 23.487 185.388 21.2435C187.171 19.7465 188.314 19.0743 190.286 17.9601Z"/><path fill="#494849" d="M190.286 17.9601C194.534 15.2956 199.657 15.6524 204.176 17.3491L203.678 18.701C200.213 17.6739 197.297 17.9072 193.806 18.2254C192.235 18.3431 191.775 18.4286 190.286 17.9601Z"/><path fill="#343334" d="M179.602 31.0968L179.86 31.859C180.93 32.2985 183.96 33.2043 185.009 32.7233C183.896 41.0943 188.949 44.5245 195.546 47.9267C186.841 48.556 180.758 43.4151 179.656 34.5086C179.504 33.2774 179.393 32.361 179.602 31.0968Z"/><path fill="#494849" d="M185.388 21.2435C186.55 23.487 186.91 23.9641 188.958 25.4136C186.689 27.7048 185.827 29.585 185.009 32.7233C183.96 33.2043 180.93 32.2985 179.86 31.859L179.602 31.0968C180.734 27.0458 182.343 24.1352 185.388 21.2435Z"/><path fill="#B60A07" d="M168.884 72.3204L170.116 73.3739C168.265 73.9876 167.581 74.9032 166.742 76.5823L166.628 76.8143L164.651 75.2189C166.166 74.4487 166.4 73.2434 168.884 72.3204Z"/><path d="M145.446 184.304C146.054 183.314 148.555 178.381 149.404 178.318C163.265 177.295 178.005 178.522 191.792 178.448C206.689 178.368 220.875 177.931 235.718 177.869C237.842 177.86 243.584 178.026 245.712 178.665C246.424 178.879 247.32 181.46 247.653 182.333C256.02 186.245 259.946 187.525 254.159 196.861C250.639 197.64 247.171 197.701 243.587 197.876C227.14 198.676 210.703 198.117 194.251 198.052L168.738 198.034C160.685 198.078 149.002 198.978 141.583 196.314C139.55 195.584 134.319 186.517 141.971 185.148C143.496 184.563 143.819 184.501 145.446 184.304Z"/><path fill="#343334" d="M145.075 186.613C147.04 186.611 151.464 186.58 153.255 186.857C156.195 186.992 166.689 186.874 168.583 187.248C168.254 187.415 167.541 187.362 167.216 187.602C165.136 189.143 166.192 191.419 166.943 193.211C163.058 193.741 154.12 194.784 150.955 191.81C149.857 190.778 150.334 188.636 150.499 187.224C149.99 186.9 146.628 186.927 145.344 186.669L145.075 186.613Z"/><path fill="#CB0100" d="M239.152 186.854L240.38 187.225C245.302 195.359 230.098 193.769 225.853 193.249C226.784 191.215 227.051 190.827 226.351 188.702L226.031 187.702C230.319 187.221 234.588 187.615 239.152 186.854Z"/><path fill="#6A696A" d="M171.049 184.663L204.426 184.26C208.321 184.247 216.885 184.017 220.325 184.61C219.835 184.868 219.296 185.121 218.863 185.458C218.091 185.569 214.678 185.486 213.64 185.48L201.747 185.399C193.812 185.36 183.26 185.807 175.63 185.399C174.675 184.808 172.427 184.837 171.049 184.663Z"/><path fill="#C1BEBF" d="M220.325 184.61C224.705 184.321 229.334 184.265 233.706 184.697C235.915 185.154 237.261 185.601 239.152 186.854C234.588 187.615 230.319 187.221 226.031 187.702C223.437 187.141 221.233 186.667 218.863 185.458C219.296 185.121 219.835 184.868 220.325 184.61Z"/><path fill="#C1BEBF" d="M157.305 184.969C161.553 184.478 166.714 184.623 171.049 184.663C172.427 184.837 174.675 184.808 175.63 185.399C172.777 186.43 171.188 186.504 168.583 187.248C166.689 186.874 156.195 186.992 153.255 186.857L153.157 186.636L153.344 186.171C154.451 185.433 155.974 185.239 157.305 184.969Z"/><path fill="#494849" d="M233.706 184.697C239.728 184.195 243.717 183.951 249.72 185.729C246.721 186.782 243.558 187.289 240.38 187.225L239.152 186.854C237.261 185.601 235.915 185.154 233.706 184.697Z"/><path fill="#494849" d="M141.971 185.148C143.496 184.563 143.819 184.501 145.446 184.304C149.072 184.516 153.876 184.435 157.305 184.969C155.974 185.239 154.451 185.433 153.344 186.171L153.157 186.636L153.255 186.857C151.464 186.58 147.04 186.611 145.075 186.613C143.63 186.526 142.989 186.021 141.971 185.148Z"/><path d="M142.599 204.561C144.806 203.381 148.314 202.515 150.788 202.399C161.672 201.886 172.79 202.538 183.717 202.545C193.071 202.528 202.424 202.438 211.776 202.274C222.223 202.062 236.877 200.842 247.012 203.898C248.332 204.295 249.634 204.749 250.916 205.257C245.787 205.65 239.333 206.097 234.232 205.886C235.923 208.547 235.708 209.208 234.772 212.115C239.089 212.62 244.809 212.792 248.965 211.535C252.663 210.418 252.693 208.103 251.572 205.1C254.693 205.034 263.664 204.476 265.615 206.058C269.806 209.459 262.848 214.562 259.171 214.746C251.813 215.113 244.908 214.981 237.687 214.803C229.778 214.623 221.866 214.571 213.956 214.648L160.482 215.006C153.929 215.007 147.37 215.114 140.819 215.067C137.222 215.041 133.234 214.843 130.362 212.447C128.693 211.054 127.013 208.438 128.791 206.498C130.521 204.611 134.265 204.911 136.624 204.908C138.885 205.029 140.361 204.814 142.599 204.561Z"/><path fill="#F99799" d="M142.599 204.561C144.806 203.381 148.314 202.515 150.788 202.399C161.672 201.886 172.79 202.538 183.717 202.545C193.071 202.528 202.424 202.438 211.776 202.274C222.223 202.062 236.877 200.842 247.012 203.898C248.332 204.295 249.634 204.749 250.916 205.257C245.787 205.65 239.333 206.097 234.232 205.886C220.296 203.518 204.737 203.441 190.609 203.541C181.803 203.604 168.983 203.753 160.272 205.067C154.578 204.981 148.149 205.275 142.599 204.561Z"/><path fill="#343334" d="M142.599 204.561C148.149 205.275 154.578 204.981 160.272 205.067C159.287 205.465 157.915 207.469 157.169 208.412C158.375 210.056 159.188 211.127 160.579 212.658C155.668 212.55 145.23 214.133 140.798 210.971C139.553 210.083 139.715 206.971 139.722 205.396C139.029 204.928 137.536 204.965 136.624 204.908C138.885 205.029 140.361 204.814 142.599 204.561Z"/><path d="M205.433 165.545C212.605 165.09 223.92 165.305 231.361 165.317C232.445 165.682 236.698 167.44 237.181 168.181L237.248 168.608C231.736 170.287 229.173 168.92 223.776 168.721C224.322 169.815 224.898 170.63 224.784 171.802C224.362 172.9 223.633 173.408 222.584 173.862C214.874 177.199 182.464 176.071 173.177 174.827C168.094 175.94 159.51 175.519 154.5 174.132C153.509 171.169 153.984 169.093 153.596 167.926L155.467 167.62C162.448 164.269 181.352 165.356 189.429 165.584C194.763 165.452 200.099 165.439 205.433 165.545Z"/><path fill="#343334" d="M155.467 167.62C161.059 168.371 165.022 168.444 170.722 168.351C169.45 171.486 169.109 173.749 173.177 174.827C168.094 175.94 159.51 175.519 154.5 174.132C153.509 171.169 153.984 169.093 153.596 167.926L155.467 167.62Z"/><path fill="#F99799" d="M205.433 165.545C212.605 165.09 223.92 165.305 231.361 165.317C232.445 165.682 236.698 167.44 237.181 168.181L237.248 168.608C231.736 170.287 229.173 168.92 223.776 168.721C217.992 167.197 212.793 166.772 206.846 166.484L205.433 165.545Z"/><path fill="#F99799" d="M155.467 167.62C162.448 164.269 181.352 165.356 189.429 165.584C188.733 165.949 188.244 166.24 187.488 166.469C182.93 166.696 175.093 167.317 170.722 168.351C165.022 168.444 161.059 168.371 155.467 167.62Z"/><path fill="#ED9BA3" d="M189.429 165.584C194.763 165.452 200.099 165.439 205.433 165.545L206.846 166.484L187.488 166.469C188.244 166.24 188.733 165.949 189.429 165.584Z"/><path d="M154.5 174.132C153.621 174.051 152.742 173.96 151.864 173.857C149.849 173.615 143.357 172.939 144.337 169.728C146.272 167.749 150.884 168.021 153.596 167.926C153.984 169.093 153.509 171.169 154.5 174.132Z"/><path fill="#F15A5C" d="M231.361 165.317C234.167 165.036 246.911 164.487 248.614 166.367L248.553 166.976C246.562 168.551 240.04 167.403 237.248 168.608L237.181 168.181C236.698 167.44 232.445 165.682 231.361 165.317Z"/></svg>